# xmcd
#
# Track frame offsets:
#	150
#	9988
#	22126
#	34652
#	48684
#	60822
#	75124
#	86744
#	99116
#	111978
#	124425
#	136073
#	152500
#	165249
#	179347
#	192353
#	205382
#	222144
#
# Disc length: 3121 seconds
# Revision: 1
# Processed by: cddbd v1.5.2PL0 Copyright (c) Steve Scherf et al.
# Submitted via: dBpowerAMP V12.0
#
DISCID=e00c2f12
DTITLE=Merle Haggard - Lonesome Fugitive
DYEAR=1900
DGENRE=Country
TTITLE0=Momma Tried
TTITLE1=Working Man Blues
TTITLE2=Silver Wings
TTITLE3=Always Wanting You
TTITLE4=Okie From Muskogee
TTITLE5=Branded Man
TTITLE6=Carolyn
TTITLE7=If We Make It Through December
TTITLE8=The Fighting Side Of Me
TTITLE9=The Bottle Let Me Down
TTITLE10=Turning Off A Memory
TTITLE11=Daddy Frank The Guitar Man
TTITLE12=Sing Me Back Home
TTITLE13=I'm A Lonesome Fugitive
TTITLE14=Kentucky Gambler
TTITLE15=The Way I Am
TTITLE16=Today I Started Loving You Again
TTITLE17=Things Aren't Funny Anymore
EXTD=
EXTT0=
EXTT1=
EXTT2=
EXTT3=
EXTT4=
EXTT5=
EXTT6=
EXTT7=
EXTT8=
EXTT9=
EXTT10=
EXTT11=
EXTT12=
EXTT13=
EXTT14=
EXTT15=
EXTT16=
EXTT17=
PLAYORDER=
